<svg width="24" height="24" viewBox="0 0 24 24" fill="none" xmlns="http://www.w3.org/2000/svg">
<path d="M12 -9.15527e-05C5.37321 -9.15527e-05 0 5.37312 0 11.9999C0 18.6267 5.37321 23.9999 12 23.9999C18.6268 23.9999 24 18.6267 24 11.9999C24 5.37312 18.6268 -9.15527e-05 12 -9.15527e-05ZM12 21.9642C6.49821 21.9642 2.03571 17.5017 2.03571 11.9999C2.03571 6.49812 6.49821 2.03562 12 2.03562C17.5018 2.03562 21.9643 6.49812 21.9643 11.9999C21.9643 17.5017 17.5018 21.9642 12 21.9642ZM13.2777 11.3785L12.5973 11.2204V7.62312C13.6152 7.76241 14.2446 8.39991 14.3518 9.18205C14.3652 9.28919 14.4563 9.36687 14.5634 9.36687H15.7661C15.892 9.36687 15.9911 9.25705 15.9804 9.13116C15.817 7.46241 14.4429 6.39098 12.608 6.20616V5.33027C12.608 5.21241 12.5116 5.11598 12.3938 5.11598H11.6411C11.5232 5.11598 11.4268 5.21241 11.4268 5.33027V6.21419C9.53036 6.39902 8.04643 7.44634 8.04643 9.40169C8.04643 11.2124 9.38036 12.0856 10.7812 12.4204L11.4429 12.5892V16.4115C10.2589 16.2535 9.59464 15.6213 9.45804 14.7696C9.44196 14.6678 9.35089 14.5928 9.24643 14.5928H8.00893C7.88304 14.5928 7.78393 14.6999 7.79464 14.8258C7.91518 16.299 9.03214 17.6544 11.4161 17.8285V18.6696C11.4161 18.7874 11.5125 18.8838 11.6304 18.8838H12.3911C12.5089 18.8838 12.6054 18.7874 12.6054 18.6669L12.6 17.8178C14.6973 17.6329 16.1973 16.5106 16.1973 14.4963C16.1946 12.6374 15.0134 11.8071 13.2777 11.3785ZM11.4402 10.9446C11.2902 10.9017 11.1643 10.8615 11.0384 10.8106C10.133 10.4838 9.7125 9.95616 9.7125 9.2758C9.7125 8.30348 10.4491 7.74902 11.4402 7.62312V10.9446ZM12.5973 16.4196V12.8383C12.6804 12.8624 12.7554 12.8812 12.833 12.8972C14.1 13.2829 14.5259 13.8187 14.5259 14.641C14.5259 15.6883 13.7384 16.3178 12.5973 16.4196Z" fill="black"/>
</svg>
