<svg width="62" height="65" viewBox="0 0 62 65" fill="none" xmlns="http://www.w3.org/2000/svg">
<g filter="url(#filter0_d)">
<path d="M18.75 15.5C16.8197 15.5 15.25 17.0697 15.25 19V40C15.25 41.9303 16.8197 43.5 18.75 43.5H25.0255L31 49.4745L36.9745 43.5H43.25C45.1803 43.5 46.75 41.9303 46.75 40V19C46.75 17.0697 45.1803 15.5 43.25 15.5H18.75ZM43.25 40H35.5255L31 44.5255L26.4745 40H18.75V19H43.25V40Z" fill="#FFB800"/>
<path d="M29.25 22.5H32.75V33H29.25V22.5ZM29.25 34.75H32.75V38.25H29.25V34.75Z" fill="#FFB800"/>
</g>
<defs>
<filter id="filter0_d" x="-5" y="-3" width="72" height="72" filterUnits="userSpaceOnUse" color-interpolation-filters="sRGB">
<feFlood flood-opacity="0" result="BackgroundImageFix"/>
<feColorMatrix in="SourceAlpha" type="matrix" values="0 0 0 0 0 0 0 0 0 0 0 0 0 0 0 0 0 0 127 0"/>
<feOffset/>
<feGaussianBlur stdDeviation="7.5"/>
<feColorMatrix type="matrix" values="0 0 0 0 0.95 0 0 0 0 0.708383 0 0 0 0 0.0870833 0 0 0 1 0"/>
<feBlend mode="normal" in2="BackgroundImageFix" result="effect1_dropShadow"/>
<feBlend mode="normal" in="SourceGraphic" in2="effect1_dropShadow" result="shape"/>
</filter>
</defs>
</svg>
