<svg width="15" height="15" viewBox="0 0 15 15" fill="none" xmlns="http://www.w3.org/2000/svg">
<path d="M1.66667 15H13.3333C14.2525 15 15 14.3273 15 13.5V5.25C15 5.05109 14.9122 4.86032 14.7559 4.71967C14.5996 4.57902 14.3877 4.5 14.1667 4.5H11.6667V3.75C11.6667 1.68225 9.7975 0 7.5 0C5.2025 0 3.33333 1.68225 3.33333 3.75V4.5H0.833333C0.61232 4.5 0.400358 4.57902 0.244078 4.71967C0.0877973 4.86032 0 5.05109 0 5.25V13.5C0 14.3273 0.7475 15 1.66667 15ZM5 3.75C5 2.5095 6.12167 1.5 7.5 1.5C8.87833 1.5 10 2.5095 10 3.75V4.5H5V3.75ZM1.66667 6H3.33333V7.5H5V6H10V7.5H11.6667V6H13.3333L13.335 13.5H1.66667V6Z" fill="white"/>
</svg>
