<svg width="40" height="40" viewBox="0 0 40 40" fill="none" xmlns="http://www.w3.org/2000/svg">
<path d="M40 22.2222C40 24.6889 38.22 26.6667 36 26.6667H4C2.93913 26.6667 1.92172 26.1984 1.17157 25.3649C0.421427 24.5314 0 23.401 0 22.2222C0 21.0435 0.421427 19.913 1.17157 19.0795C1.92172 18.246 2.93913 17.7778 4 17.7778H22L27 22.2222L32 17.7778H36C37.0609 17.7778 38.0783 18.246 38.8284 19.0795C39.5786 19.913 40 21.0435 40 22.2222ZM20 0C2 0 2 13.3333 2 13.3333H38C38 13.3333 38 0 20 0ZM2 33.3333C2 37.0222 4.68 40 8 40H32C35.32 40 38 37.0222 38 33.3333V31.1111H2V33.3333Z" fill="black" fill-opacity="0.68"/>
</svg>
