<svg width="40" height="48" viewBox="0 0 40 48" fill="none" xmlns="http://www.w3.org/2000/svg">
<g filter="url(#filter0_d)">
<path d="M23.5714 16.2414V17.8465L20.7143 20.3292V15H19.2857V20.3292L16.4286 17.8465V16.2414H15V26.1724C15.002 27.2162 15.4361 28.2245 16.223 29.0131C17.0098 29.8017 18.097 30.318 19.2857 30.4676V33H20.7143V30.4676C21.903 30.318 22.9902 29.8017 23.777 29.0131C24.5639 28.2245 24.998 27.2162 25 26.1724V16.2414H23.5714ZM19.2857 29.2132C18.4796 29.0692 17.7553 28.6882 17.2349 28.1343C16.7144 27.5804 16.4296 26.8875 16.4286 26.1724V24.5673L19.2857 27.0501V29.2132ZM19.2857 25.2948L16.4286 22.812V19.6018L19.2857 22.0846V25.2948ZM20.7143 22.0846L23.5714 19.6018V22.812L20.7143 25.2948V22.0846ZM20.7143 29.2132V27.0501L23.5714 24.5673V26.1724C23.5704 26.8875 23.2856 27.5804 22.7651 28.1343C22.2447 28.6882 21.5204 29.0692 20.7143 29.2132Z" fill="#FDB704"/>
</g>
<defs>
<filter id="filter0_d" x="0" y="0" width="40" height="48" filterUnits="userSpaceOnUse" color-interpolation-filters="sRGB">
<feFlood flood-opacity="0" result="BackgroundImageFix"/>
<feColorMatrix in="SourceAlpha" type="matrix" values="0 0 0 0 0 0 0 0 0 0 0 0 0 0 0 0 0 0 127 0"/>
<feOffset/>
<feGaussianBlur stdDeviation="7.5"/>
<feColorMatrix type="matrix" values="0 0 0 0 0.95 0 0 0 0 0.708383 0 0 0 0 0.0870833 0 0 0 1 0"/>
<feBlend mode="normal" in2="BackgroundImageFix" result="effect1_dropShadow"/>
<feBlend mode="normal" in="SourceGraphic" in2="effect1_dropShadow" result="shape"/>
</filter>
</defs>
</svg>
