<svg width="18" height="18" viewBox="0 0 18 18" fill="none" xmlns="http://www.w3.org/2000/svg">
<path d="M10.06 17H2.95C2.76174 17.006 2.57419 16.9741 2.3985 16.9062C2.22281 16.8383 2.06257 16.7358 1.9273 16.6047C1.79203 16.4737 1.68449 16.3167 1.61109 16.1433C1.53768 15.9698 1.4999 15.7833 1.5 15.595V2.42999C1.51433 2.04623 1.68031 1.68382 1.96152 1.4223C2.24273 1.16077 2.61621 1.02148 3 1.03499H10.11C10.2941 1.03086 10.4771 1.06416 10.6479 1.13287C10.8188 1.20158 10.9739 1.30427 11.1038 1.43471C11.2338 1.56515 11.3359 1.72062 11.404 1.8917C11.4721 2.06278 11.5048 2.24591 11.5 2.42999V15.595C11.4994 15.7823 11.4614 15.9676 11.3884 16.14C11.3154 16.3125 11.2087 16.4687 11.0747 16.5995C10.9406 16.7303 10.7819 16.8331 10.6076 16.9019C10.4334 16.9706 10.2473 17.004 10.06 17ZM2.95 1.99999C2.89204 1.99798 2.83427 2.00759 2.78008 2.02824C2.72589 2.04889 2.67638 2.08016 2.63445 2.12023C2.59252 2.16029 2.55903 2.20833 2.53594 2.26153C2.51285 2.31472 2.50063 2.372 2.5 2.42999V15.595C2.5 15.7104 2.54583 15.821 2.62741 15.9026C2.70899 15.9842 2.81963 16.03 2.935 16.03H10.06C10.1797 16.0316 10.2955 15.9875 10.3837 15.9066C10.472 15.8258 10.5261 15.7143 10.535 15.595V2.42999C10.5249 2.31152 10.4703 2.20129 10.3821 2.1215C10.294 2.04171 10.1789 1.99829 10.06 1.99999H2.95Z" fill="white"/>
<path d="M14.765 17C14.5339 17.002 14.3048 16.9582 14.0907 16.8711C13.8766 16.7841 13.682 16.6555 13.5179 16.4928C13.3538 16.3301 13.2235 16.1365 13.1346 15.9232C13.0458 15.7099 13 15.4811 13 15.25V11.5C13 11.2348 12.8946 10.9804 12.7071 10.7929C12.5196 10.6054 12.2652 10.5 12 10.5H11.285C11.1524 10.5 11.0252 10.4473 10.9315 10.3536C10.8377 10.2598 10.785 10.1326 10.785 10C10.785 9.86739 10.8377 9.74021 10.9315 9.64645C11.0252 9.55268 11.1524 9.5 11.285 9.5H12C12.5304 9.5 13.0391 9.71071 13.4142 10.0858C13.7893 10.4609 14 10.9696 14 11.5V15.25C14 15.4489 14.079 15.6397 14.2197 15.7803C14.3603 15.921 14.5511 16 14.75 16C14.9489 16 15.1397 15.921 15.2803 15.7803C15.421 15.6397 15.5 15.4489 15.5 15.25V8.65L13.935 5.15C13.8415 4.95496 13.6947 4.79039 13.5115 4.67536C13.3283 4.56032 13.1163 4.49952 12.9 4.5H12.535C12.4024 4.5 12.2752 4.44732 12.1815 4.35355C12.0877 4.25979 12.035 4.13261 12.035 4C12.035 3.86739 12.0877 3.74022 12.1815 3.64645C12.2752 3.55268 12.4024 3.5 12.535 3.5H12.9C13.3157 3.49979 13.7226 3.62011 14.0714 3.8464C14.4201 4.0727 14.6958 4.39525 14.865 4.775L16.47 8.355C16.4993 8.41938 16.5147 8.48925 16.515 8.56V15.25C16.515 15.7141 16.3306 16.1592 16.0024 16.4874C15.6743 16.8156 15.2291 17 14.765 17Z" fill="white"/>
<path d="M9 4.5H4C3.86739 4.5 3.74021 4.44732 3.64645 4.35355C3.55268 4.25979 3.5 4.13261 3.5 4C3.5 3.86739 3.55268 3.74021 3.64645 3.64645C3.74021 3.55268 3.86739 3.5 4 3.5H9C9.13261 3.5 9.25979 3.55268 9.35355 3.64645C9.44732 3.74021 9.5 3.86739 9.5 4C9.5 4.13261 9.44732 4.25979 9.35355 4.35355C9.25979 4.44732 9.13261 4.5 9 4.5Z" fill="white"/>
<path d="M9 6.5H4C3.86739 6.5 3.74021 6.44732 3.64645 6.35355C3.55268 6.25979 3.5 6.13261 3.5 6C3.5 5.86739 3.55268 5.74021 3.64645 5.64645C3.74021 5.55268 3.86739 5.5 4 5.5H9C9.13261 5.5 9.25979 5.55268 9.35355 5.64645C9.44732 5.74021 9.5 5.86739 9.5 6C9.5 6.13261 9.44732 6.25979 9.35355 6.35355C9.25979 6.44732 9.13261 6.5 9 6.5Z" fill="white"/>
<path d="M12.5 6.04001C12.3674 6.04001 12.2402 5.98733 12.1464 5.89356C12.0527 5.79979 12 5.67262 12 5.54001V2.54001C12 2.4074 12.0527 2.28022 12.1464 2.18646C12.2402 2.09269 12.3674 2.04001 12.5 2.04001C12.6326 2.04001 12.7598 2.09269 12.8536 2.18646C12.9473 2.28022 13 2.4074 13 2.54001V5.54001C13 5.67262 12.9473 5.79979 12.8536 5.89356C12.7598 5.98733 12.6326 6.04001 12.5 6.04001Z" fill="white"/>
</svg>
