<svg width="72" height="72" viewBox="0 0 72 72" fill="none" xmlns="http://www.w3.org/2000/svg">
<g filter="url(#filter0_d)">
<path fill-rule="evenodd" clip-rule="evenodd" d="M50.8568 21.1412C42.6671 12.9543 29.3309 12.9516 21.1413 21.1412C12.9516 29.3333 12.9542 42.6667 21.1413 50.8588C29.3309 59.0457 42.6645 59.0484 50.8568 50.8588C59.0491 42.664 59.0464 29.3333 50.8568 21.1412ZM24.3766 47.6236C17.956 41.2057 17.9507 30.768 24.3582 24.3606C30.7656 17.9506 41.2034 17.9585 47.6241 24.3764C54.0421 30.7943 54.0447 41.2346 47.6399 47.642C41.2271 54.0494 30.792 54.0415 24.3766 47.6236Z" fill="#FC0000"/>
<path fill-rule="evenodd" clip-rule="evenodd" d="M41.6904 44.0224C41.315 44.034 40.9494 43.9012 40.669 43.6512L36.0174 39.0049L31.5554 43.4669C31.2447 43.7288 30.8478 43.8657 30.4418 43.8513C30.1439 43.8476 29.8498 43.784 29.5771 43.6641C29.3044 43.5443 29.0586 43.3707 28.8544 43.1537C28.2727 42.5745 28.1437 42.0007 28.141 41.6269C28.1195 41.2409 28.252 40.8622 28.5096 40.5739L33.048 36.0329L28.6254 31.6157C28.2253 31.2129 27.891 29.9651 28.9413 28.9174C29.5336 28.3251 30.1154 28.2014 30.5024 28.2014C30.9841 28.2014 31.3448 28.3909 31.5212 28.5726L36.0174 33.0635L40.4821 28.5989C40.7937 28.3369 41.1915 28.1999 41.5983 28.2145C41.8969 28.2179 42.1917 28.2816 42.465 28.402C42.7382 28.5223 42.9843 28.6968 43.1883 28.9148C44.1834 29.9125 43.9833 31.0471 43.5332 31.4946L38.9895 36.0382L43.5621 40.6081C43.7385 40.7871 43.9465 41.1872 43.9465 41.7243C43.9437 42.0219 43.8804 42.3159 43.7605 42.5883C43.6406 42.8607 43.4665 43.1059 43.2489 43.309C42.6566 43.8987 42.0774 44.0224 41.6904 44.0224Z" fill="#FC0000"/>
</g>
<defs>
<filter id="filter0_d" x="0" y="0" width="72" height="72" filterUnits="userSpaceOnUse" color-interpolation-filters="sRGB">
<feFlood flood-opacity="0" result="BackgroundImageFix"/>
<feColorMatrix in="SourceAlpha" type="matrix" values="0 0 0 0 0 0 0 0 0 0 0 0 0 0 0 0 0 0 127 0"/>
<feOffset/>
<feGaussianBlur stdDeviation="7.5"/>
<feColorMatrix type="matrix" values="0 0 0 0 0.9875 0 0 0 0 0 0 0 0 0 0 0 0 0 1 0"/>
<feBlend mode="normal" in2="BackgroundImageFix" result="effect1_dropShadow"/>
<feBlend mode="normal" in="SourceGraphic" in2="effect1_dropShadow" result="shape"/>
</filter>
</defs>
</svg>
