<svg width="45" height="33" viewBox="0 0 45 33" fill="none" xmlns="http://www.w3.org/2000/svg">
<path d="M11.25 24.4068C11.25 24.8136 11.0596 25.1822 10.6787 25.5127C10.2979 25.8432 9.87305 26.0085 9.4043 26.0085C8.87695 26.0085 8.42285 25.8432 8.04199 25.5127C7.66113 25.1822 7.4707 24.8136 7.4707 24.4068C7.4707 23.9492 7.66113 23.5551 8.04199 23.2246C8.42285 22.8941 8.87695 22.7288 9.4043 22.7288C9.87305 22.7288 10.2979 22.8941 10.6787 23.2246C11.0596 23.5551 11.25 23.9492 11.25 24.4068ZM41.2207 1.60169H16.875V1.75424C14.4141 2.31356 12.5391 3.35593 11.25 4.88136C10.7812 4.88136 10.3857 4.61441 10.0635 4.08051C9.74121 3.54661 9.55078 3 9.49219 2.44068L9.4043 1.60169H5.625C5.625 2.82203 5.94727 4.0678 6.5918 5.33898C7.23633 6.61017 8.23242 7.47458 9.58008 7.9322C9.58008 8.0339 9.55078 8.18644 9.49219 8.38983C9.43359 8.59322 9.4043 8.72034 9.4043 8.77119C6.70898 9.83898 4.83398 11.6186 3.7793 14.1102C3.01758 15.9407 2.31445 17.9619 1.66992 20.1737C1.02539 22.3856 0.585938 24.1017 0.351562 25.322C0.117187 26.5424 0 27.2542 0 27.4576C0 28.983 0.380859 30.1271 1.14258 30.8898C2.02148 31.9576 3.51562 32.4915 5.625 32.4915H11.25C12.9492 32.4915 14.3115 32.0466 15.3369 31.1568C16.3623 30.2669 16.875 29.0847 16.875 27.6102C16.875 26.3898 16.9922 24.7627 17.2266 22.7288H20.6543C22.3535 22.7288 23.877 22.2712 25.2246 21.3559C26.5723 20.4407 27.4805 19.2712 27.9492 17.8475H29.9707C32.959 17.8475 35.0977 16.7797 36.3867 14.6441H40.3418C40.9277 14.6441 41.2207 14.3644 41.2207 13.8051C41.2207 13.2458 40.9277 12.9661 40.3418 12.9661H37.3535C37.3535 12.8136 37.3828 12.5466 37.4414 12.1653C37.5 11.7839 37.5293 11.5169 37.5293 11.3644H45V0H43.1543C41.8652 0 41.2207 0.533898 41.2207 1.60169ZM16.875 5.18644V14.2627C15.7617 13.9576 14.8535 13.3856 14.1504 12.5466C13.4473 11.7076 13.0957 10.7797 13.0957 9.76271C13.0957 8.69491 13.4473 7.74153 14.1504 6.90254C14.8535 6.06356 15.7617 5.49153 16.875 5.18644ZM11.25 29.2881H5.625C4.74609 29.2881 4.18945 29.161 3.95508 28.9068C3.83789 28.7034 3.7793 28.322 3.7793 27.7627C4.48242 23.2373 5.6543 19.0169 7.29492 15.1017C7.88086 13.8305 8.70117 12.8644 9.75586 12.2034C10.459 14.2881 12.0117 15.8644 14.4141 16.9322C13.5352 21.7119 13.0957 25.2712 13.0957 27.6102C13.0957 28.7288 12.4805 29.2881 11.25 29.2881ZM20.6543 19.5254H17.8418C18.0762 18.6102 18.1934 18.0508 18.1934 17.8475H23.8184C23.2324 18.9661 22.1777 19.5254 20.6543 19.5254ZM29.9707 14.6441H20.6543V4.88136H33.75V6.48305H25.3125C24.668 6.48305 24.3457 6.76271 24.3457 7.32203C24.3457 7.83051 24.668 8.08475 25.3125 8.08475H33.75V9.76271H25.3125C24.668 9.76271 24.3457 10.0169 24.3457 10.5254C24.3457 11.0847 24.668 11.3644 25.3125 11.3644H33.75C33.75 12.2288 33.3838 12.9915 32.6514 13.6525C31.9189 14.3136 31.0254 14.6441 29.9707 14.6441ZM41.2207 8.08475H37.5293V4.88136H41.2207V8.08475Z" fill="#060606" fill-opacity="0.68"/>
</svg>
