<svg width="18" height="18" viewBox="0 0 18 18" fill="none" xmlns="http://www.w3.org/2000/svg">
<path d="M12.695 12.725C12.5842 12.6531 12.4494 12.628 12.3201 12.6552C12.1908 12.6823 12.0775 12.7596 12.005 12.87C11.3 13.95 10.005 15.275 8.85002 15.72C7.69502 16.165 6.79002 16.005 6.43002 15.72C6.27502 15.585 5.87002 15.22 6.21502 13.975C6.44502 13.145 7.87502 9.235 8.21502 8.285L7.12502 8.425C6.78002 9.355 5.48002 12.845 5.24502 13.715C4.90502 14.96 5.07502 15.865 5.79002 16.495C6.2896 16.8455 6.89017 17.0229 7.50002 17C8.09177 16.9915 8.67674 16.8728 9.22502 16.65C10.62 16.105 12.085 14.59 12.855 13.415C12.8899 13.3592 12.9135 13.2971 12.9243 13.2322C12.9352 13.1673 12.9331 13.1009 12.9183 13.0368C12.9034 12.9727 12.876 12.9121 12.8377 12.8586C12.7994 12.8051 12.7509 12.7597 12.695 12.725Z" fill="white"/>
<path d="M9.65002 5.5C10.095 5.5 10.53 5.36804 10.9001 5.12081C11.2701 4.87357 11.5585 4.52217 11.7288 4.11104C11.8991 3.6999 11.9436 3.2475 11.8568 2.81105C11.77 2.37459 11.5557 1.97368 11.241 1.65901C10.9263 1.34434 10.5254 1.13005 10.089 1.04323C9.65252 0.956417 9.20012 1.00097 8.78899 1.17127C8.37785 1.34157 8.02645 1.62996 7.77922 1.99997C7.53198 2.36998 7.40002 2.80499 7.40002 3.25C7.40002 3.84674 7.63708 4.41903 8.05903 4.84099C8.48099 5.26295 9.05329 5.5 9.65002 5.5ZM9.65002 2C9.89725 2 10.1389 2.07331 10.3445 2.21066C10.55 2.34802 10.7103 2.54324 10.8049 2.77165C10.8995 3.00005 10.9242 3.25139 10.876 3.49386C10.8278 3.73634 10.7087 3.95907 10.5339 4.13388C10.3591 4.3087 10.1364 4.42775 9.89389 4.47598C9.65141 4.52421 9.40008 4.49946 9.17167 4.40485C8.94326 4.31024 8.74804 4.15003 8.61069 3.94446C8.47334 3.7389 8.40002 3.49723 8.40002 3.25C8.40002 2.91848 8.53172 2.60054 8.76614 2.36612C9.00056 2.1317 9.3185 2 9.65002 2Z" fill="white"/>
<path d="M5.90503 7.5C5.93503 7.5 9.04003 7.09 9.77003 7C10.095 6.95 10.34 7 10.42 7.075C10.5 7.15 10.525 7.475 10.385 7.915C10.08 8.845 8.54003 13.415 8.09003 14.77C8.30998 14.7249 8.52574 14.6613 8.73503 14.58C8.9352 14.4972 9.12762 14.3968 9.31003 14.28C9.92503 12.5 11.075 9.05 11.335 8.26C11.595 7.47 11.53 6.87 11.185 6.46C10.9882 6.26046 10.7419 6.11685 10.4712 6.04392C10.2006 5.971 9.91546 5.97137 9.64503 6.045C8.93003 6.12 5.91003 6.515 5.78003 6.545C5.64742 6.56224 5.52709 6.63145 5.44551 6.73741C5.36394 6.84337 5.32779 6.9774 5.34503 7.11C5.36227 7.24261 5.43148 7.36294 5.53744 7.44452C5.6434 7.5261 5.77742 7.56224 5.91003 7.545L5.90503 7.5Z" fill="white"/>
</svg>
