<svg width="13" height="13" viewBox="0 0 13 13" fill="none" xmlns="http://www.w3.org/2000/svg">
<path fill-rule="evenodd" clip-rule="evenodd" d="M12.1875 1.625C12.1875 1.40951 12.1019 1.20285 11.9495 1.05048C11.7972 0.898102 11.5905 0.8125 11.375 0.8125H1.625C1.40951 0.8125 1.20285 0.898102 1.05048 1.05048C0.898102 1.20285 0.8125 1.40951 0.8125 1.625V11.375C0.8125 11.5905 0.898102 11.7972 1.05048 11.9495C1.20285 12.1019 1.40951 12.1875 1.625 12.1875H11.375C11.5905 12.1875 11.7972 12.1019 11.9495 11.9495C12.1019 11.7972 12.1875 11.5905 12.1875 11.375V1.625ZM0 1.625C0 1.19402 0.171205 0.780698 0.475951 0.475951C0.780698 0.171205 1.19402 0 1.625 0L11.375 0C11.806 0 12.2193 0.171205 12.524 0.475951C12.8288 0.780698 13 1.19402 13 1.625V11.375C13 11.806 12.8288 12.2193 12.524 12.524C12.2193 12.8288 11.806 13 11.375 13H1.625C1.19402 13 0.780698 12.8288 0.475951 12.524C0.171205 12.2193 0 11.806 0 11.375V1.625ZM9.34375 6.09375C9.45149 6.09375 9.55483 6.13655 9.63101 6.21274C9.7072 6.28892 9.75 6.39226 9.75 6.5C9.75 6.60774 9.7072 6.71108 9.63101 6.78726C9.55483 6.86345 9.45149 6.90625 9.34375 6.90625H4.63694L6.38138 8.64987C6.41915 8.68765 6.44911 8.73249 6.46955 8.78184C6.48999 8.83119 6.50051 8.88408 6.50051 8.9375C6.50051 8.99092 6.48999 9.04381 6.46955 9.09316C6.44911 9.14251 6.41915 9.18735 6.38138 9.22513C6.3436 9.2629 6.29876 9.29286 6.24941 9.3133C6.20006 9.33374 6.14717 9.34426 6.09375 9.34426C6.04033 9.34426 5.98744 9.33374 5.93809 9.3133C5.88874 9.29286 5.8439 9.2629 5.80612 9.22513L3.36862 6.78763C3.33079 6.74989 3.30078 6.70506 3.2803 6.6557C3.25982 6.60635 3.24927 6.55344 3.24927 6.5C3.24927 6.44656 3.25982 6.39365 3.2803 6.3443C3.30078 6.29494 3.33079 6.25011 3.36862 6.21237L5.80612 3.77487C5.88241 3.69859 5.98587 3.65574 6.09375 3.65574C6.20163 3.65574 6.30509 3.69859 6.38138 3.77487C6.45766 3.85116 6.50051 3.95462 6.50051 4.0625C6.50051 4.17038 6.45766 4.27384 6.38138 4.35013L4.63694 6.09375H9.34375Z" fill="white"/>
</svg>
