<svg width="13" height="8" viewBox="0 0 13 8" fill="none" xmlns="http://www.w3.org/2000/svg">
<path d="M3.95417 2.48649C4.3875 2.7027 4.875 3.18919 4.875 4C4.875 4.81081 4.3875 5.2973 3.95417 5.51351C3.7375 4.75676 3.7375 3.24324 3.95417 2.48649ZM3.52083 1.2973C2.4375 1.2973 2.4375 6.7027 3.52083 6.7027C4.60417 6.7027 5.95833 5.67568 5.95833 4C5.95833 2.32432 4.60417 1.2973 3.52083 1.2973ZM9.04583 2.48649C9.20833 3.24324 9.20833 4.75676 9.04583 5.51351C8.6125 5.2973 8.125 4.81081 8.125 4C8.125 3.18919 8.6125 2.7027 9.04583 2.48649ZM9.47917 1.2973C8.39583 1.2973 7.04167 2.32432 7.04167 4C7.04167 5.67568 8.39583 6.7027 9.47917 6.7027C10.5625 6.7027 10.5625 1.2973 9.47917 1.2973ZM2.65417 0.864865L1.35417 0L0.758333 0.918919L2.16667 1.83784C2.275 1.45946 2.4375 1.08108 2.65417 0.864865ZM10.8333 1.83784L12.2417 0.918919L11.6458 0L10.3458 0.864865C10.5083 1.08108 10.725 1.40541 10.8333 1.83784ZM2.16667 6.16216L0.758333 7.08108L1.35417 8L2.65417 7.13514C2.49167 6.91892 2.275 6.59459 2.16667 6.16216ZM11.1042 3.45946V4.54054H13V3.45946H11.1042ZM10.3458 7.13514L11.6458 8L12.2417 7.08108L10.8333 6.16216C10.725 6.54054 10.5625 6.91892 10.3458 7.13514ZM1.89583 4V3.45946H0V4.54054H1.89583V4Z" fill="#2F60E0"/>
</svg>
