<svg width="40" height="45" viewBox="0 0 40 45" fill="none" xmlns="http://www.w3.org/2000/svg">
<g filter="url(#filter0_d)">
<path d="M20 15C17.2357 15 15 17.3475 15 20.25C15 24.1875 20 30 20 30C20 30 25 24.1875 25 20.25C25 17.3475 22.7643 15 20 15ZM20 22.125C19.0143 22.125 18.2143 21.285 18.2143 20.25C18.2143 19.215 19.0143 18.375 20 18.375C20.9857 18.375 21.7857 19.215 21.7857 20.25C21.7857 21.285 20.9857 22.125 20 22.125Z" fill="url(#paint0_linear)"/>
</g>
<defs>
<filter id="filter0_d" x="0" y="0" width="40" height="45" filterUnits="userSpaceOnUse" color-interpolation-filters="sRGB">
<feFlood flood-opacity="0" result="BackgroundImageFix"/>
<feColorMatrix in="SourceAlpha" type="matrix" values="0 0 0 0 0 0 0 0 0 0 0 0 0 0 0 0 0 0 127 0"/>
<feOffset/>
<feGaussianBlur stdDeviation="7.5"/>
<feColorMatrix type="matrix" values="0 0 0 0 0.50284 0 0 0 0 0.135243 0 0 0 0 0.791667 0 0 0 1 0"/>
<feBlend mode="normal" in2="BackgroundImageFix" result="effect1_dropShadow"/>
<feBlend mode="normal" in="SourceGraphic" in2="effect1_dropShadow" result="shape"/>
</filter>
<linearGradient id="paint0_linear" x1="16.7803" y1="30" x2="24.3674" y2="29.4573" gradientUnits="userSpaceOnUse">
<stop offset="0.213542" stop-color="#7113CE"/>
<stop offset="1" stop-color="#287DCB"/>
</linearGradient>
</defs>
</svg>
