<svg width="52" height="53" viewBox="0 0 52 53" fill="none" xmlns="http://www.w3.org/2000/svg">
<g id="&#208;&#156;&#208;&#176;&#208;&#188;&#208;&#176; &#208;&#178; &#208;&#186;&#208;&#190;&#208;&#188;&#208;&#189;&#208;&#176;&#209;&#130;&#209;&#131; &#208;&#183;&#208;&#176;&#209;&#136;&#208;&#187;&#208;&#176;">
<path id="icon/av/mic_off_24px" fill-rule="evenodd" clip-rule="evenodd" d="M31.7853 24.2376L30.9143 13.0716C30.6562 9.76162 27.7759 7.29814 24.4659 7.55631C21.3953 7.79582 19.0832 10.3032 18.976 13.3006L31.7853 24.2376ZM37.9888 24.5562C37.1713 24.62 36.5002 25.2741 36.4443 26.101C36.3944 26.7468 36.3045 27.3958 36.1503 27.9896L38.8801 30.3244C39.3849 29.0813 39.7225 27.7511 39.8345 26.3581C39.8948 25.3303 39.0257 24.4753 37.9888 24.5562ZM8.39805 14.7676C7.55975 14.0507 7.46177 12.7945 8.17875 11.9562C8.52216 11.5537 9.01156 11.3045 9.539 11.2633C10.0664 11.2222 10.5886 11.3926 10.9902 11.7369L43.9431 39.9398C44.7814 40.6568 44.8794 41.9129 44.1624 42.7512C43.4455 43.5895 42.1893 43.6875 41.351 42.9705L33.8493 36.5544C32.364 37.573 30.699 38.3448 28.9047 38.7456L29.2593 43.2918C29.3449 44.3884 28.5176 45.3557 27.4209 45.4412C26.3243 45.5268 25.357 44.6995 25.2715 43.6028L24.9169 39.0566C18.9249 38.6213 13.5761 34.3443 12.1985 28.5137C11.9796 27.5077 12.7056 26.5283 13.7425 26.4474C14.56 26.3836 15.3245 26.9258 15.5079 27.734C16.6531 32.9006 21.5942 36.066 26.6588 35.6709C28.2739 35.5449 29.8196 35.0432 31.184 34.2748L27.6159 31.223C26.4198 31.5771 25.1022 31.6598 23.5399 30.9191C21.3944 29.9028 20.0223 27.743 19.8372 25.3702L19.7703 24.5128L8.39805 14.7676Z" fill="white"/>
</g>
</svg>
