<svg width="52" height="52" viewBox="0 0 52 52" fill="none" xmlns="http://www.w3.org/2000/svg">
<g id="&#208;&#156;&#208;&#184;&#208;&#186;&#209;&#128;&#208;&#190;&#209;&#132;&#208;&#190;&#208;&#189; &#208;&#186;&#208;&#190;&#208;&#179;&#208;&#180;&#208;&#176; &#208;&#184;&#208;&#179;&#209;&#128;&#208;&#190;&#208;&#186; &#208;&#191;&#208;&#184;&#208;&#183;&#208;&#180;&#208;&#184;&#209;&#130; &#209;&#135;&#209;&#130;&#208;&#190;-&#209;&#130;&#208;&#190;">
<path id="icon/av/mic_24px" fill-rule="evenodd" clip-rule="evenodd" d="M31.8409 24.5365C32.0991 27.8465 29.6356 30.7268 26.3257 30.9849C23.0157 31.2431 20.1354 28.7796 19.8773 25.4697L18.9441 13.506C18.6859 10.1961 21.1494 7.3158 24.4594 7.05762C27.7693 6.79945 30.6496 9.26293 30.9078 12.5729L31.8409 24.5365ZM35.8214 25.9312C35.9047 24.9417 36.6662 24.1602 37.6433 24.084C38.8596 23.9891 39.9206 24.9896 39.8145 26.2015C39.3041 32.2596 34.8841 37.3186 28.9293 38.6457L29.2528 42.7931C29.3383 43.8898 28.511 44.857 27.4143 44.9426C26.3177 45.0281 25.3504 44.2008 25.2649 43.1041L24.9414 38.9567C18.8528 38.569 13.7018 34.2565 12.2582 28.3509C11.9855 27.1685 12.8586 26.0171 14.0749 25.9223C15.0519 25.8461 15.9254 26.5001 16.1611 27.4647C17.3441 32.0867 21.7117 35.357 26.6367 34.9728C31.5617 34.5887 35.3694 30.6808 35.8214 25.9312Z" fill="white" fill-opacity="0.61"/>
</g>
</svg>
