<svg width="10" height="18" viewBox="0 0 10 18" fill="none" xmlns="http://www.w3.org/2000/svg">
<path d="M8.33333 0H1.66667C1.36574 0 1.08796 0.0761719 0.833333 0.228516C0.578704 0.380859 0.376157 0.585938 0.225694 0.84375C0.0752315 1.10156 0 1.38281 0 1.6875V16.3125C0 16.7812 0.162037 17.1797 0.486111 17.5078C0.810185 17.8359 1.2037 18 1.66667 18H8.33333C8.7963 18 9.18982 17.8359 9.51389 17.5078C9.83796 17.1797 10 16.7812 10 16.3125V1.6875C10 1.38281 9.92477 1.10156 9.77431 0.84375C9.62384 0.585938 9.4213 0.380859 9.16667 0.228516C8.91204 0.0761719 8.63426 0 8.33333 0ZM8.88889 16.3125C8.88889 16.4648 8.83391 16.5967 8.72396 16.708C8.61401 16.8193 8.4838 16.875 8.33333 16.875H1.66667C1.5162 16.875 1.386 16.8193 1.27604 16.708C1.16609 16.5967 1.11111 16.4648 1.11111 16.3125V1.6875C1.11111 1.53516 1.16609 1.40332 1.27604 1.29199C1.386 1.18066 1.5162 1.125 1.66667 1.125H8.33333C8.4838 1.125 8.61401 1.18066 8.72396 1.29199C8.83391 1.40332 8.88889 1.53516 8.88889 1.6875V16.3125ZM5.00868 14.0625C4.70197 14.0625 4.43866 14.1738 4.21875 14.3965C3.99884 14.6191 3.88889 14.8828 3.88889 15.1875C3.88889 15.3867 3.93808 15.5742 4.03646 15.75C4.13484 15.9258 4.27083 16.0635 4.44444 16.1631C4.61806 16.2627 4.80324 16.3125 5 16.3125C5.19676 16.3125 5.38194 16.2627 5.55556 16.1631C5.72917 16.0635 5.86516 15.9258 5.96354 15.75C6.06192 15.5742 6.11111 15.3867 6.11111 15.1875C6.11111 14.8828 6.00405 14.6191 5.78993 14.3965C5.57581 14.1738 5.31539 14.0625 5.00868 14.0625ZM6.11111 1.6875H3.88889C3.73843 1.6875 3.60822 1.74316 3.49826 1.85449C3.38831 1.96582 3.33333 2.09766 3.33333 2.25C3.33333 2.40234 3.38831 2.53418 3.49826 2.64551C3.60822 2.75684 3.73843 2.8125 3.88889 2.8125H6.11111C6.26157 2.8125 6.39178 2.75684 6.50174 2.64551C6.61169 2.53418 6.66667 2.40234 6.66667 2.25C6.66667 2.09766 6.61169 1.96582 6.50174 1.85449C6.39178 1.74316 6.26157 1.6875 6.11111 1.6875Z" fill="white"/>
</svg>
