<svg width="16" height="16" viewBox="0 0 16 16" fill="none" xmlns="http://www.w3.org/2000/svg">
<path d="M1 1.49988C1 1.10205 1.15804 0.720522 1.43934 0.439218C1.72064 0.157913 2.10218 -0.00012207 2.5 -0.00012207L14.5 -0.00012207C14.8978 -0.00012207 15.2794 0.157913 15.5607 0.439218C15.842 0.720522 16 1.10205 16 1.49988V14.4999C16 14.8977 15.842 15.2792 15.5607 15.5605C15.2794 15.8418 14.8978 15.9999 14.5 15.9999H2.5C2.10218 15.9999 1.72064 15.8418 1.43934 15.5605C1.15804 15.2792 1 14.8977 1 14.4999V12.9999H0.5C0.367392 12.9999 0.240215 12.9472 0.146447 12.8534C0.0526784 12.7597 0 12.6325 0 12.4999C0 12.3673 0.0526784 12.2401 0.146447 12.1463C0.240215 12.0526 0.367392 11.9999 0.5 11.9999H1V8.49988H0.5C0.367392 8.49988 0.240215 8.4472 0.146447 8.35343C0.0526784 8.25966 0 8.13249 0 7.99988C0 7.86727 0.0526784 7.74009 0.146447 7.64632C0.240215 7.55256 0.367392 7.49988 0.5 7.49988H1V3.99988H0.5C0.367392 3.99988 0.240215 3.9472 0.146447 3.85343C0.0526784 3.75966 0 3.63249 0 3.49988C0 3.36727 0.0526784 3.24009 0.146447 3.14632C0.240215 3.05256 0.367392 2.99988 0.5 2.99988H1V1.49988ZM2.5 0.999878C2.36739 0.999878 2.24021 1.05256 2.14645 1.14632C2.05268 1.24009 2 1.36727 2 1.49988V14.4999C2 14.6325 2.05268 14.7597 2.14645 14.8534C2.24021 14.9472 2.36739 14.9999 2.5 14.9999H14.5C14.6326 14.9999 14.7598 14.9472 14.8536 14.8534C14.9473 14.7597 15 14.6325 15 14.4999V1.49988C15 1.36727 14.9473 1.24009 14.8536 1.14632C14.7598 1.05256 14.6326 0.999878 14.5 0.999878H2.5Z" fill="url(#paint0_linear)"/>
<path d="M13.5 5.99988C13.6326 5.99988 13.7598 6.05256 13.8535 6.14633C13.9473 6.24009 14 6.36727 14 6.49988V9.49988C14 9.63249 13.9473 9.75967 13.8535 9.85343C13.7598 9.9472 13.6326 9.99988 13.5 9.99988C13.3674 9.99988 13.2402 9.9472 13.1464 9.85343C13.0527 9.75967 13 9.63249 13 9.49988V6.49988C13 6.36727 13.0527 6.24009 13.1464 6.14633C13.2402 6.05256 13.3674 5.99988 13.5 5.99988ZM4.82799 4.46388C4.87443 4.41732 4.92961 4.38037 4.99035 4.35517C5.0511 4.32996 5.11622 4.31699 5.18199 4.31699C5.24775 4.31699 5.31287 4.32996 5.37362 4.35517C5.43436 4.38037 5.48954 4.41732 5.53598 4.46388L6.62599 5.55388C7.13385 5.19345 7.74122 4.99983 8.36399 4.99983C8.98675 4.99983 9.59412 5.19345 10.102 5.55388L11.192 4.46388C11.2859 4.37013 11.4132 4.31751 11.5458 4.3176C11.6785 4.3177 11.8057 4.37049 11.8995 4.46438C11.9932 4.55827 12.0459 4.68555 12.0458 4.81823C12.0457 4.95092 11.9929 5.07813 11.899 5.17188L10.809 6.26188C11.549 7.29888 11.549 8.70188 10.809 9.73788L11.899 10.8279C11.9929 10.9216 12.0457 11.0488 12.0458 11.1815C12.0459 11.3142 11.9932 11.4415 11.8995 11.5354C11.8057 11.6293 11.6785 11.6821 11.5458 11.6822C11.4132 11.6823 11.2859 11.6296 11.192 11.5359L10.102 10.4459C9.59417 10.8064 8.98679 11.0002 8.36399 11.0002C7.74118 11.0002 7.1338 10.8064 6.62599 10.4459L5.53598 11.5359C5.4895 11.5824 5.43431 11.6192 5.37357 11.6444C5.31283 11.6696 5.24773 11.6825 5.18199 11.6825C5.11624 11.6825 5.05114 11.6696 4.9904 11.6444C4.92966 11.6192 4.87447 11.5824 4.82799 11.5359C4.7815 11.4894 4.74462 11.4342 4.71946 11.3735C4.6943 11.3127 4.68135 11.2476 4.68135 11.1819C4.68135 11.1161 4.6943 11.051 4.71946 10.9903C4.74462 10.9296 4.7815 10.8744 4.82799 10.8279L5.91799 9.73788C5.55756 9.23001 5.36394 8.62265 5.36394 7.99988C5.36394 7.37711 5.55756 6.76975 5.91799 6.26188L4.82799 5.17188C4.78142 5.12543 4.74448 5.07026 4.71927 5.00951C4.69407 4.94877 4.68109 4.88365 4.68109 4.81788C4.68109 4.75211 4.69407 4.68699 4.71927 4.62625C4.74448 4.5655 4.78142 4.51033 4.82799 4.46388ZM6.94999 6.58588C6.75896 6.77037 6.6066 6.99106 6.50178 7.23507C6.39696 7.47908 6.34179 7.74152 6.33948 8.00708C6.33718 8.27264 6.38778 8.536 6.48834 8.78179C6.5889 9.02758 6.73741 9.25088 6.9252 9.43867C7.11298 9.62646 7.33628 9.77496 7.58208 9.87552C7.82787 9.97609 8.09123 10.0267 8.35679 10.0244C8.62235 10.0221 8.88479 9.9669 9.12879 9.86208C9.3728 9.75726 9.59349 9.6049 9.77799 9.41388C10.1423 9.03667 10.3439 8.53147 10.3393 8.00708C10.3348 7.48268 10.1244 6.98106 9.75362 6.61024C9.38281 6.23943 8.88118 6.02909 8.35679 6.02453C7.83239 6.01997 7.32719 6.22156 6.94999 6.58588Z" fill="url(#paint1_linear)"/>
<defs>
<linearGradient id="paint0_linear" x1="8" y1="-0.00012207" x2="8" y2="15.9999" gradientUnits="userSpaceOnUse">
<stop stop-color="#08B84F"/>
<stop offset="1" stop-color="#0F6EC6"/>
</linearGradient>
<linearGradient id="paint1_linear" x1="9.34054" y1="4.31699" x2="9.34054" y2="11.6825" gradientUnits="userSpaceOnUse">
<stop stop-color="#08B84F"/>
<stop offset="1" stop-color="#0F6EC6"/>
</linearGradient>
</defs>
</svg>
