<svg width="16" height="16" viewBox="0 0 16 16" fill="none" xmlns="http://www.w3.org/2000/svg">
<path fill-rule="evenodd" clip-rule="evenodd" d="M7.46981 0.583803C3.34235 0.905742 0.261284 4.51627 0.583223 8.64373C0.905162 12.7712 4.50879 15.8603 8.63626 15.5384C12.7712 15.2159 15.8597 11.6047 15.5378 7.47729C15.2159 3.34982 11.6048 0.26128 7.46981 0.583803ZM8.52711 14.0424C5.22214 14.3001 2.33648 11.8321 2.0787 8.5271C1.82091 5.22214 4.28899 2.33648 7.59395 2.07869C10.8989 1.82091 13.7846 4.28898 14.0424 7.59394C14.3001 10.8989 11.8321 13.7846 8.52711 14.0424ZM7.55957 4.3382L7.60443 4.3347C7.90352 4.31137 8.16146 4.53198 8.18479 4.83107L8.44957 8.22576L11.4774 9.71983C11.7508 9.84896 11.8593 10.179 11.7221 10.4455C11.5924 10.7114 11.2692 10.8118 11.0033 10.6821L7.75502 9.0623C7.51273 8.94579 7.35889 8.70954 7.33848 8.44783L7.0632 4.91855C7.03987 4.61946 7.26048 4.36152 7.55957 4.3382Z" fill="#DADADA"/>
</svg>
