<svg width="15" height="15" viewBox="0 0 15 15" fill="none" xmlns="http://www.w3.org/2000/svg">
<path d="M6.10714 1V2.85714L5.17857 3.32143L3.78571 1.92857L1.92857 3.78571L3.32143 5.17857L2.85714 6.10714H1V8.89286H2.85714L3.32143 9.82143L1.92857 11.2143L3.78571 13.0714L5.17857 11.6786L6.10714 12.1429V14H8.89286V12.1429L9.82143 11.6786L11.2143 13.0714L13.0714 11.2143L11.6786 9.82143L12.1429 8.89286H14V6.10714H12.1429L11.6786 5.17857L13.0714 3.78571L11.2143 1.92857L9.82143 3.32143L8.89286 2.85714V1H6.10714Z" stroke="white" stroke-linecap="round" stroke-linejoin="round"/>
<path d="M7.49997 9.35714C8.52564 9.35714 9.35711 8.52567 9.35711 7.5C9.35711 6.47432 8.52564 5.64285 7.49997 5.64285C6.47429 5.64285 5.64282 6.47432 5.64282 7.5C5.64282 8.52567 6.47429 9.35714 7.49997 9.35714Z" stroke="white" stroke-linecap="round" stroke-linejoin="round"/>
</svg>
