<svg width="16" height="22" viewBox="0 0 16 22" fill="none" xmlns="http://www.w3.org/2000/svg">
<path d="M14 7.07715H13V5.07715C13 2.31715 10.76 0.0771484 8 0.0771484C5.24 0.0771484 3 2.31715 3 5.07715V7.07715H2C0.9 7.07715 0 7.97715 0 9.07715V19.0771C0 20.1771 0.9 21.0771 2 21.0771H14C15.1 21.0771 16 20.1771 16 19.0771V9.07715C16 7.97715 15.1 7.07715 14 7.07715ZM8 16.0771C6.9 16.0771 6 15.1771 6 14.0771C6 12.9771 6.9 12.0771 8 12.0771C9.1 12.0771 10 12.9771 10 14.0771C10 15.1771 9.1 16.0771 8 16.0771ZM11.1 7.07715H4.9V5.07715C4.9 3.36715 6.29 1.97715 8 1.97715C9.71 1.97715 11.1 3.36715 11.1 5.07715H13V7.07715H11.1Z" fill="#27AE60"/>
</svg>
