<svg width="40" height="40" viewBox="0 0 40 40" fill="none" xmlns="http://www.w3.org/2000/svg">
<path d="M8.75 20L24.5 4.25C25.5 3.25 27 2.5 28.75 2.5C30.5 2.5 32 3.25 33.25 4.25C35.75 6.75 35.75 10.75 33.25 13L26.25 20H29.75L34.75 15C38.25 11.5 38.25 6 34.75 2.75C33 1 30.75 0.25 28.5 0.25C26.25 0.25 24.25 0.75 22.5 2.5L6.75 18.5C6 19 5.5 19.75 5 20.75C6.25 20.25 7.5 20 8.75 20Z" fill="black"/>
<path d="M18.25 14L12.25 20H24L18.25 14Z" fill="black"/>
<path d="M31.25 22.5H8.75C4 22.5 0 26.5 0 31.25C0 36 4 40 8.75 40H31.25C36 40 40 36 40 31.25C40 26.5 36 22.5 31.25 22.5ZM31.25 37.5H20V27.5H8.75C6 27.5 3.75 29 2.5 30.5C3 27.5 5.5 25 8.75 25H31.25C34.75 25 37.5 27.75 37.5 31.25C37.5 34.75 34.75 37.5 31.25 37.5Z" fill="black"/>
</svg>
