<svg width="41" height="45" viewBox="0 0 41 45" fill="none" xmlns="http://www.w3.org/2000/svg">
<g filter="url(#filter0_d)">
<path d="M25 24.2523C25 27.0139 23.2616 28.7523 20.5 28.7523C17.7384 28.7523 16 27.0139 16 24.2523C16 21.2889 19.2259 17.2883 20.2153 16.1311C20.2505 16.09 20.2942 16.057 20.3434 16.0343C20.3925 16.0117 20.446 16 20.5002 16C20.5543 16 20.6078 16.0117 20.6569 16.0343C20.7061 16.057 20.7498 16.09 20.785 16.1311C21.7741 17.2883 25 21.2889 25 24.2523Z" stroke="#06F0FF" stroke-miterlimit="10"/>
</g>
<path d="M23.25 24.5023C23.25 25.0991 23.0129 25.6714 22.591 26.0933C22.169 26.5153 21.5967 26.7523 21 26.7523" stroke="#06F0FF" stroke-linecap="round" stroke-linejoin="round"/>
<defs>
<filter id="filter0_d" x="0.5" y="0.5" width="40" height="43.7523" filterUnits="userSpaceOnUse" color-interpolation-filters="sRGB">
<feFlood flood-opacity="0" result="BackgroundImageFix"/>
<feColorMatrix in="SourceAlpha" type="matrix" values="0 0 0 0 0 0 0 0 0 0 0 0 0 0 0 0 0 0 127 0"/>
<feOffset/>
<feGaussianBlur stdDeviation="7.5"/>
<feColorMatrix type="matrix" values="0 0 0 0 0.025 0 0 0 0 0.9415 0 0 0 0 1 0 0 0 1 0"/>
<feBlend mode="normal" in2="BackgroundImageFix" result="effect1_dropShadow"/>
<feBlend mode="normal" in="SourceGraphic" in2="effect1_dropShadow" result="shape"/>
</filter>
</defs>
</svg>
